{
	"asset":{
		"generator":"Khronos glTF Blender I/O v4.1.63",
		"version":"2.0"
	},
	"scene":0,
	"scenes":[
		{
			"name":"Scene",
			"nodes":[
				0
			]
		}
	],
	"nodes":[
		{
			"mesh":0,
			"name":"Curve.001",
			"rotation":[
				0,
				-0.7071068286895752,
				0.7071068286895752,
				1.3767879636361613e-07
			],
			"scale":[
				30,
				30,
				30
			],
			"translation":[
				0.010775446891784668,
				1.6059492826461792,
				-0.19277678430080414
			]
		}
	],
	"meshes":[
		{
			"name":"Curve.001",
			"primitives":[
				{
					"attributes":{
						"POSITION":0,
						"NORMAL":1,
						"TEXCOORD_0":2
					},
					"indices":3
				}
			]
		}
	],
	"accessors":[
		{
			"bufferView":0,
			"componentType":5126,
			"count":3343,
			"max":[
				0.055365487933158875,
				0.006425922736525536,
				0.05352881923317909
			],
			"min":[
				-0.05474858731031418,
				-0.00642591156065464,
				-0.056564826518297195
			],
			"type":"VEC3"
		},
		{
			"bufferView":1,
			"componentType":5126,
			"count":3343,
			"type":"VEC3"
		},
		{
			"bufferView":2,
			"componentType":5126,
			"count":3343,
			"type":"VEC2"
		},
		{
			"bufferView":3,
			"componentType":5123,
			"count":6225,
			"type":"SCALAR"
		}
	],
	"bufferViews":[
		{
			"buffer":0,
			"byteLength":40116,
			"byteOffset":0,
			"target":34962
		},
		{
			"buffer":0,
			"byteLength":40116,
			"byteOffset":40116,
			"target":34962
		},
		{
			"buffer":0,
			"byteLength":26744,
			"byteOffset":80232,
			"target":34962
		},
		{
			"buffer":0,
			"byteLength":12450,
			"byteOffset":106976,
			"target":34963
		}
	],
	"buffers":[
		{
			"byteLength":119428,
			"uri":"GEAR.bin"
		}
	]
}
